<mxfile host="Electron" agent="Mozilla/5.0 (Windows NT 10.0; Win64; x64) AppleWebKit/537.36 (KHTML, like Gecko) draw.io/26.0.4 Chrome/128.0.6613.186 Electron/32.2.5 Safari/537.36" version="26.0.4">
  <diagram name="Seite-1" id="DTJCOvLzAgjmpC-Wllvy">
    <mxGraphModel dx="2314" dy="1196" grid="1" gridSize="10" guides="1" tooltips="1" connect="1" arrows="1" fold="1" page="1" pageScale="1" pageWidth="827" pageHeight="1169" math="0" shadow="0">
      <root>
        <mxCell id="0" />
        <mxCell id="1" parent="0" />
        <mxCell id="PddnjprAUVVI9EbKrOTa-1" value="&amp;nbsp;abstract class KontoBase" style="swimlane;fontStyle=1;align=center;verticalAlign=top;childLayout=stackLayout;horizontal=1;startSize=26;horizontalStack=0;resizeParent=1;resizeParentMax=0;resizeLast=0;collapsible=1;marginBottom=0;whiteSpace=wrap;html=1;fillColor=#D9F7FF;" vertex="1" parent="1">
          <mxGeometry x="270" y="30" width="230" height="290" as="geometry" />
        </mxCell>
        <mxCell id="PddnjprAUVVI9EbKrOTa-2" value="&lt;div&gt;&lt;b&gt;&amp;nbsp;- myNumber: int&lt;/b&gt;&lt;/div&gt;&lt;div&gt;&lt;b&gt;&amp;nbsp;- myName: String&lt;/b&gt;&lt;/div&gt;&lt;div&gt;&lt;b&gt;&amp;nbsp;- myBalance: double&lt;/b&gt;&lt;/div&gt;&lt;div&gt;&lt;b&gt;&amp;nbsp;- isValid: boolean&lt;/b&gt;&lt;/div&gt;" style="text;strokeColor=none;fillColor=none;align=left;verticalAlign=top;spacingLeft=4;spacingRight=4;overflow=hidden;rotatable=0;points=[[0,0.5],[1,0.5]];portConstraint=eastwest;whiteSpace=wrap;html=1;" vertex="1" parent="PddnjprAUVVI9EbKrOTa-1">
          <mxGeometry y="26" width="230" height="74" as="geometry" />
        </mxCell>
        <mxCell id="PddnjprAUVVI9EbKrOTa-3" value="" style="line;strokeWidth=1;fillColor=none;align=left;verticalAlign=middle;spacingTop=-1;spacingLeft=3;spacingRight=3;rotatable=0;labelPosition=right;points=[];portConstraint=eastwest;strokeColor=inherit;" vertex="1" parent="PddnjprAUVVI9EbKrOTa-1">
          <mxGeometry y="100" width="230" height="8" as="geometry" />
        </mxCell>
        <mxCell id="PddnjprAUVVI9EbKrOTa-4" value="&lt;div&gt;&lt;b&gt;+ getMyNumber(): int&lt;/b&gt;&lt;/div&gt;&lt;div&gt;&lt;b&gt;+ getMyName(): String&lt;/b&gt;&lt;/div&gt;&lt;div&gt;&lt;b&gt;+ getMyBalance(): double&lt;/b&gt;&lt;/div&gt;&lt;div&gt;&lt;b&gt;+ isValid(): boolean&lt;/b&gt;&lt;/div&gt;&lt;div&gt;&lt;b&gt;+ setMyNumber(int)&lt;/b&gt;&lt;/div&gt;&lt;div&gt;&lt;b&gt;+ setMyName(String)&lt;/b&gt;&lt;/div&gt;&lt;div&gt;&lt;b&gt;+ setMyBalance(double)&lt;/b&gt;&lt;/div&gt;&lt;div&gt;&lt;b&gt;+ setValid(boolean)&lt;/b&gt;&lt;/div&gt;&lt;div&gt;&lt;b&gt;+ geldHinzufugen(double)&lt;/b&gt;&lt;/div&gt;&lt;div&gt;&lt;b&gt;+ geldNenmen(double)&lt;/b&gt;&lt;/div&gt;" style="text;strokeColor=none;fillColor=none;align=left;verticalAlign=top;spacingLeft=4;spacingRight=4;overflow=hidden;rotatable=0;points=[[0,0.5],[1,0.5]];portConstraint=eastwest;whiteSpace=wrap;html=1;" vertex="1" parent="PddnjprAUVVI9EbKrOTa-1">
          <mxGeometry y="108" width="230" height="182" as="geometry" />
        </mxCell>
        <mxCell id="PddnjprAUVVI9EbKrOTa-24" style="edgeStyle=orthogonalEdgeStyle;rounded=0;orthogonalLoop=1;jettySize=auto;html=1;entryX=0.84;entryY=-0.002;entryDx=0;entryDy=0;entryPerimeter=0;" edge="1" parent="1" source="PddnjprAUVVI9EbKrOTa-5" target="PddnjprAUVVI9EbKrOTa-13">
          <mxGeometry relative="1" as="geometry">
            <mxPoint x="540" y="600" as="targetPoint" />
          </mxGeometry>
        </mxCell>
        <mxCell id="PddnjprAUVVI9EbKrOTa-5" value="class Main" style="swimlane;fontStyle=1;align=center;verticalAlign=top;childLayout=stackLayout;horizontal=1;startSize=26;horizontalStack=0;resizeParent=1;resizeParentMax=0;resizeLast=0;collapsible=1;marginBottom=0;whiteSpace=wrap;html=1;fillColor=#CFFFD2;" vertex="1" parent="1">
          <mxGeometry x="560" y="410" width="160" height="60" as="geometry" />
        </mxCell>
        <mxCell id="PddnjprAUVVI9EbKrOTa-6" value="&lt;b&gt;+ main(String[] args)&lt;/b&gt;" style="text;strokeColor=none;fillColor=none;align=left;verticalAlign=top;spacingLeft=4;spacingRight=4;overflow=hidden;rotatable=0;points=[[0,0.5],[1,0.5]];portConstraint=eastwest;whiteSpace=wrap;html=1;" vertex="1" parent="PddnjprAUVVI9EbKrOTa-5">
          <mxGeometry y="26" width="160" height="26" as="geometry" />
        </mxCell>
        <mxCell id="PddnjprAUVVI9EbKrOTa-7" value="" style="line;strokeWidth=1;fillColor=none;align=left;verticalAlign=middle;spacingTop=-1;spacingLeft=3;spacingRight=3;rotatable=0;labelPosition=right;points=[];portConstraint=eastwest;strokeColor=inherit;" vertex="1" parent="PddnjprAUVVI9EbKrOTa-5">
          <mxGeometry y="52" width="160" height="8" as="geometry" />
        </mxCell>
        <mxCell id="PddnjprAUVVI9EbKrOTa-13" value="class Kontoverwaltung" style="swimlane;fontStyle=1;align=center;verticalAlign=top;childLayout=stackLayout;horizontal=1;startSize=26;horizontalStack=0;resizeParent=1;resizeParentMax=0;resizeLast=0;collapsible=1;marginBottom=0;whiteSpace=wrap;html=1;fillColor=#D3FFD5;" vertex="1" parent="1">
          <mxGeometry x="330" y="610" width="240" height="170" as="geometry" />
        </mxCell>
        <mxCell id="PddnjprAUVVI9EbKrOTa-14" value="&lt;b&gt;- kontoList: ArrayList&amp;lt;Konto&amp;gt;&lt;/b&gt;" style="text;strokeColor=none;fillColor=none;align=left;verticalAlign=top;spacingLeft=4;spacingRight=4;overflow=hidden;rotatable=0;points=[[0,0.5],[1,0.5]];portConstraint=eastwest;whiteSpace=wrap;html=1;" vertex="1" parent="PddnjprAUVVI9EbKrOTa-13">
          <mxGeometry y="26" width="240" height="26" as="geometry" />
        </mxCell>
        <mxCell id="PddnjprAUVVI9EbKrOTa-15" value="" style="line;strokeWidth=1;fillColor=none;align=left;verticalAlign=middle;spacingTop=-1;spacingLeft=3;spacingRight=3;rotatable=0;labelPosition=right;points=[];portConstraint=eastwest;strokeColor=inherit;" vertex="1" parent="PddnjprAUVVI9EbKrOTa-13">
          <mxGeometry y="52" width="240" height="8" as="geometry" />
        </mxCell>
        <mxCell id="PddnjprAUVVI9EbKrOTa-16" value="&lt;div&gt;&lt;b&gt;+ neukontoHinzufugen(konto: Konto)&lt;/b&gt;&lt;/div&gt;&lt;div&gt;&lt;b&gt;+ kontoEntfernen(nummer: int)&lt;/b&gt;&lt;/div&gt;&lt;div&gt;&lt;b&gt;+ kontoSuchen(nummer: int): Konto&lt;/b&gt;&lt;/div&gt;&lt;div&gt;&lt;b&gt;+ kontostandAnzeigen(nummer: int)&lt;/b&gt;&lt;/div&gt;&lt;div&gt;&lt;b&gt;+ alleKontenAnzeigen()&lt;/b&gt;&lt;/div&gt;" style="text;strokeColor=none;fillColor=none;align=left;verticalAlign=top;spacingLeft=4;spacingRight=4;overflow=hidden;rotatable=0;points=[[0,0.5],[1,0.5]];portConstraint=eastwest;whiteSpace=wrap;html=1;" vertex="1" parent="PddnjprAUVVI9EbKrOTa-13">
          <mxGeometry y="60" width="240" height="110" as="geometry" />
        </mxCell>
        <mxCell id="PddnjprAUVVI9EbKrOTa-17" value="class Konto" style="swimlane;fontStyle=1;align=center;verticalAlign=top;childLayout=stackLayout;horizontal=1;startSize=26;horizontalStack=0;resizeParent=1;resizeParentMax=0;resizeLast=0;collapsible=1;marginBottom=0;whiteSpace=wrap;html=1;fillColor=#DAFFD9;" vertex="1" parent="1">
          <mxGeometry x="290" y="410" width="180" height="120" as="geometry" />
        </mxCell>
        <mxCell id="PddnjprAUVVI9EbKrOTa-19" value="" style="line;strokeWidth=1;fillColor=none;align=left;verticalAlign=middle;spacingTop=-1;spacingLeft=3;spacingRight=3;rotatable=0;labelPosition=right;points=[];portConstraint=eastwest;strokeColor=inherit;" vertex="1" parent="PddnjprAUVVI9EbKrOTa-17">
          <mxGeometry y="26" width="180" height="8" as="geometry" />
        </mxCell>
        <mxCell id="PddnjprAUVVI9EbKrOTa-20" value="&lt;div&gt;&lt;b&gt;+ geldHinzufugen(double)&lt;/b&gt;&lt;/div&gt;&lt;div&gt;&lt;b&gt;+ geldNenmen(double)&lt;/b&gt;&lt;/div&gt;&lt;div&gt;&lt;b&gt;+ toString(): String&lt;/b&gt;&lt;/div&gt;&lt;div&gt;&lt;b&gt;+ toInfo(): KontoInfo&lt;/b&gt;&lt;/div&gt;" style="text;strokeColor=none;fillColor=none;align=left;verticalAlign=top;spacingLeft=4;spacingRight=4;overflow=hidden;rotatable=0;points=[[0,0.5],[1,0.5]];portConstraint=eastwest;whiteSpace=wrap;html=1;" vertex="1" parent="PddnjprAUVVI9EbKrOTa-17">
          <mxGeometry y="34" width="180" height="86" as="geometry" />
        </mxCell>
        <mxCell id="PddnjprAUVVI9EbKrOTa-25" style="edgeStyle=orthogonalEdgeStyle;rounded=0;orthogonalLoop=1;jettySize=auto;html=1;entryX=0.637;entryY=0.002;entryDx=0;entryDy=0;entryPerimeter=0;" edge="1" parent="1" source="PddnjprAUVVI9EbKrOTa-20" target="PddnjprAUVVI9EbKrOTa-13">
          <mxGeometry relative="1" as="geometry" />
        </mxCell>
        <mxCell id="PddnjprAUVVI9EbKrOTa-26" value="" style="endArrow=block;endSize=16;endFill=0;html=1;rounded=0;exitX=0.427;exitY=-0.01;exitDx=0;exitDy=0;entryX=0.424;entryY=1.013;entryDx=0;entryDy=0;entryPerimeter=0;exitPerimeter=0;" edge="1" parent="1" source="PddnjprAUVVI9EbKrOTa-17" target="PddnjprAUVVI9EbKrOTa-4">
          <mxGeometry width="160" relative="1" as="geometry">
            <mxPoint x="360" y="410" as="sourcePoint" />
            <mxPoint x="360" y="330" as="targetPoint" />
          </mxGeometry>
        </mxCell>
      </root>
    </mxGraphModel>
  </diagram>
</mxfile>
